<?xml version="1.0" encoding="utf-8"?>
<!-- Generator: Adobe Illustrator 25.4.2, SVG Export Plug-In . SVG Version: 6.00 Build 0)  -->
<svg version="1.1" id="Calque_2" xmlns="http://www.w3.org/2000/svg" xmlns:xlink="http://www.w3.org/1999/xlink" x="0px" y="0px"
	 viewBox="0 0 269.56 164.75" style="enable-background:new 0 0 269.56 164.75;" xml:space="preserve">
<style type="text/css">
	.st0{fill:#2A2E46;}
	.st1{fill:#E84E0F;}
</style>
<g>
	<path class="st0" d="M41.52,77.35c-16.55,0-30.01-13.46-30.01-30.01V11.82h13.36v35.51c0,9.18,7.47,16.65,16.65,16.65
		s16.65-7.47,16.65-16.65V11.82h13.36v35.51C71.54,63.88,58.07,77.35,41.52,77.35z"/>
	<g>
		<polygon class="st0" points="189.06,38.53 210.94,76.43 226.36,76.43 189.06,11.82 151.76,76.43 167.18,76.43 		"/>
	</g>
	<path class="st0" d="M116.3,77.34c-6.25,0-12.57-1.75-18.19-5.42c-15.4-10.06-19.75-30.77-9.69-46.17
		c10.06-15.4,30.77-19.75,46.17-9.69l-7.3,11.18c-9.23-6.03-21.65-3.42-27.68,5.81c-6.03,9.23-3.42,21.65,5.81,27.68
		c9.23,6.03,21.65,3.42,27.68-5.81l11.18,7.3C137.89,72.01,127.2,77.34,116.3,77.34z"/>
	<rect x="115.97" y="37.31" class="st0" width="29.72" height="13.36"/>
	<g>
		<polygon class="st1" points="189.06,67.24 173.18,94.74 204.94,94.74 		"/>
	</g>
</g>
<g>
	<g>
		<path class="st1" d="M11.85,86.64h2.82v13.02h-2.82V86.64z"/>
		<path class="st1" d="M29.78,86.64v13.02h-2.36l-5.9-8.14v8.14h-2.76V86.64h2.54l5.71,7.94v-7.94H29.78z"/>
		<path class="st1" d="M33.14,95.44h2.84c0,1.26,1.04,1.87,2.19,1.87c1.06,0,2.1-0.56,2.1-1.53c0-1.01-1.19-1.29-2.6-1.62
			c-1.96-0.48-4.35-1.05-4.35-3.86c0-2.5,1.84-3.9,4.72-3.9c2.99,0,4.69,1.6,4.69,4.19h-2.78c0-1.12-0.92-1.65-1.98-1.65
			c-0.91,0-1.84,0.39-1.84,1.24c0,0.92,1.13,1.19,2.51,1.52c1.98,0.5,4.48,1.12,4.48,4.04c0,2.81-2.24,4.18-4.94,4.18
			C35.2,99.92,33.14,98.24,33.14,95.44z"/>
		<path class="st1" d="M55.23,89.26h-3.62v10.41h-2.82V89.26h-3.62v-2.61h10.06V89.26z"/>
		<path class="st1" d="M58.23,86.64h2.82v13.02h-2.82V86.64z"/>
		<path class="st1" d="M74.12,89.26H70.5v10.41h-2.82V89.26h-3.62v-2.61h10.06V89.26z"/>
		<path class="st1" d="M76.99,94.76v-8.12h2.82v7.99c0,1.63,1.06,2.66,2.56,2.66c1.5,0,2.56-1.03,2.56-2.66v-7.99h2.82v8.12
			c0,3.05-2.3,5.18-5.38,5.18C79.29,99.95,76.99,97.82,76.99,94.76z"/>
		<path class="st1" d="M100.67,89.26h-3.62v10.41h-2.82V89.26h-3.62v-2.61h10.06V89.26z"/>
		<path class="st1" d="M11.72,112.76v-8.12h2.82v7.99c0,1.63,1.06,2.66,2.56,2.66c1.5,0,2.56-1.03,2.56-2.66v-7.99h2.82v8.12
			c0,3.05-2.3,5.18-5.38,5.18C14.02,117.95,11.72,115.82,11.72,112.76z"/>
		<path class="st1" d="M31.05,113.22h-1.81v4.44h-2.82v-13.02h5.26c2.61,0,4.55,1.8,4.55,4.31c0,1.7-0.93,3.1-2.37,3.79l2.88,4.92
			H33.6L31.05,113.22z M29.25,110.62h2.25c1.18,0,1.88-0.71,1.88-1.69c0-0.97-0.7-1.69-1.88-1.69h-2.25V110.62z"/>
		<path class="st1" d="M49.47,113.91c0,2.09-1.84,3.76-4.1,3.76h-5.53v-13.02h5.38c2.25,0,3.91,1.43,3.91,3.35
			c0,1.12-0.55,2.16-1.47,2.8C48.82,111.4,49.47,112.53,49.47,113.91z M46.64,113.61c0-0.84-0.61-1.45-1.54-1.45h-2.5v2.92h2.5
			C46.03,115.08,46.64,114.47,46.64,113.61z M44.95,107.04H42.6v2.78h2.35c0.89,0,1.45-0.58,1.45-1.39
			C46.4,107.61,45.84,107.04,44.95,107.04z"/>
		<path class="st1" d="M60.33,115.19h-5.18l-0.89,2.47h-2.99l5.1-13.02h2.66l5.27,13.02h-3.06L60.33,115.19z M56.03,112.74h3.42
			l-1.72-4.66L56.03,112.74z"/>
		<path class="st1" d="M78.08,104.64v13.02h-2.36l-5.9-8.14v8.14h-2.76v-13.02h2.54l5.71,7.94v-7.94H78.08z"/>
		<path class="st1" d="M82.16,104.64h2.82v13.02h-2.82V104.64z"/>
		<path class="st1" d="M88.35,113.44h2.84c0,1.26,1.04,1.87,2.19,1.87c1.06,0,2.1-0.56,2.1-1.53c0-1.01-1.19-1.29-2.6-1.62
			c-1.96-0.48-4.35-1.05-4.35-3.86c0-2.5,1.84-3.9,4.72-3.9c2.99,0,4.69,1.6,4.69,4.19h-2.78c0-1.12-0.92-1.65-1.98-1.65
			c-0.91,0-1.84,0.39-1.84,1.24c0,0.92,1.13,1.19,2.51,1.52c1.98,0.5,4.48,1.12,4.48,4.04c0,2.81-2.24,4.18-4.94,4.18
			C90.41,117.92,88.35,116.24,88.35,113.44z"/>
		<path class="st1" d="M114.79,117.66l-1.28-8.5l-3.88,8.47h-0.69l-3.88-8.47l-1.29,8.5h-2.87l2.04-13.02h2.82l3.52,7.98l3.54-7.98
			h2.83l2.02,13.02H114.79z"/>
		<path class="st1" d="M128.97,115.04v2.62h-8.02v-13.02h7.82v2.6h-5v2.57h4.52v2.55h-4.52v2.67H128.97z"/>
		<path class="st1" d="M24.49,128.86c-0.01,4.08-2.74,7.08-6.65,7.08c-3.83,0-6.74-2.88-6.74-6.78c0-3.9,2.84-6.81,6.69-6.81
			c3.23,0,5.92,2.05,6.53,4.96h-2.9c-0.56-1.4-1.94-2.27-3.57-2.27c-2.31,0-3.89,1.68-3.89,4.12c0,2.41,1.54,4.09,3.89,4.09
			c1.68,0,3.14-0.89,3.62-2.23h-3.9v-2.16H24.49z"/>
		<path class="st1" d="M35.81,133.04v2.62h-8.02v-13.02h7.82v2.6h-5v2.57h4.52v2.55H30.6v2.67H35.81z M32.64,121.39h-2.05l1.03-2.64
			h2.89L32.64,121.39z"/>
		<path class="st1" d="M38.32,129.15c0-3.87,2.97-6.79,6.95-6.79c3.96,0,6.92,2.91,6.92,6.79s-2.96,6.79-6.92,6.79
			C41.3,135.95,38.32,133.02,38.32,129.15z M49.34,129.15c0-2.36-1.74-4.14-4.06-4.14c-2.32,0-4.09,1.79-4.09,4.14
			s1.77,4.14,4.09,4.14C47.59,133.29,49.34,131.52,49.34,129.15z"/>
		<path class="st1" d="M68.15,128.86c-0.01,4.08-2.74,7.08-6.65,7.08c-3.83,0-6.74-2.88-6.74-6.78c0-3.9,2.84-6.81,6.69-6.81
			c3.23,0,5.92,2.05,6.53,4.96h-2.9c-0.56-1.4-1.94-2.27-3.57-2.27c-2.31,0-3.89,1.68-3.89,4.12c0,2.41,1.54,4.09,3.89,4.09
			c1.68,0,3.14-0.89,3.62-2.23h-3.9v-2.16H68.15z"/>
		<path class="st1" d="M76.07,131.22h-1.81v4.44h-2.82v-13.02h5.26c2.61,0,4.55,1.8,4.55,4.31c0,1.7-0.93,3.1-2.37,3.79l2.88,4.92
			h-3.15L76.07,131.22z M74.27,128.62h2.25c1.18,0,1.88-0.71,1.88-1.69c0-0.97-0.7-1.69-1.88-1.69h-2.25V128.62z"/>
		<path class="st1" d="M92.48,133.19H87.3l-0.89,2.47h-2.99l5.1-13.02h2.66l5.27,13.02h-3.06L92.48,133.19z M88.18,130.74h3.42
			l-1.72-4.66L88.18,130.74z"/>
		<path class="st1" d="M108.82,127.12c0,2.57-1.98,4.48-4.6,4.48h-2.19v4.06h-2.82v-13.02h5.01
			C106.83,122.64,108.82,124.55,108.82,127.12z M105.97,127.12c0-1.08-0.75-1.87-1.87-1.87h-2.07v3.74h2.07
			C105.22,128.99,105.97,128.2,105.97,127.12z"/>
		<path class="st1" d="M122.43,122.64v13.02h-2.82v-5.38h-4.9v5.38h-2.82v-13.02h2.82v5.02h4.9v-5.02H122.43z"/>
		<path class="st1" d="M126.53,122.64h2.82v13.02h-2.82V122.64z"/>
		<path class="st1" d="M141.47,133.04v2.62h-8.02v-13.02h7.82v2.6h-5v2.57h4.52v2.55h-4.52v2.67H141.47z"/>
		<path class="st1" d="M19.58,151.19H14.4l-0.89,2.47h-2.99l5.1-13.02h2.66l5.27,13.02h-3.06L19.58,151.19z M15.28,148.74h3.42
			l-1.72-4.66L15.28,148.74z"/>
		<path class="st1" d="M34.13,151.05v2.61h-7.81v-13.02h2.82v10.41H34.13z"/>
		<path class="st1" d="M46.75,145.12c0,2.57-1.98,4.48-4.6,4.48h-2.19v4.06h-2.82v-13.02h5.01
			C44.76,140.64,46.75,142.55,46.75,145.12z M43.89,145.12c0-1.08-0.75-1.87-1.87-1.87h-2.07v3.74h2.07
			C43.14,146.99,43.89,146.2,43.89,145.12z"/>
		<path class="st1" d="M49.82,140.64h2.82v13.02h-2.82V140.64z"/>
		<path class="st1" d="M67.76,140.64v13.02H65.4l-5.9-8.14v8.14h-2.76v-13.02h2.54l5.71,7.94v-7.94H67.76z"/>
		<path class="st1" d="M79.86,151.04v2.62h-8.02v-13.02h7.82v2.6h-5v2.57h4.52v2.55h-4.52v2.67H79.86z"/>
	</g>
</g>
<g>
	<path class="st0" d="M151.83,113.85v-6.04h2.1v5.94c0,1.21,0.79,1.97,1.9,1.97c1.11,0,1.9-0.77,1.9-1.97v-5.94h2.1v6.04
		c0,2.27-1.71,3.85-4,3.85C153.54,117.71,151.83,116.12,151.83,113.85z"/>
	<path class="st0" d="M168.66,112.97v4.52h-2.02v-4.2c0-1.13-0.43-1.67-1.3-1.67c-1.04,0-1.67,0.75-1.67,1.95v3.92h-2.02v-7.46h1.38
		l0.39,0.92c0.57-0.67,1.46-1.1,2.47-1.1C167.6,109.85,168.66,111.08,168.66,112.97z"/>
	<path class="st0" d="M170.5,110.03h2.02v7.46h-2.02V110.03z M170.51,107.16h2.01v1.88h-2.01V107.16z"/>
	<path class="st0" d="M181.44,110.03l-2.97,7.46h-1.86l-3.04-7.46h2.15l1.83,5l1.79-5H181.44z"/>
	<path class="st0" d="M189.5,113.74c0,0.2-0.01,0.39-0.04,0.59h-5.65c0.18,1.02,0.85,1.58,1.82,1.58c0.7,0,1.28-0.33,1.58-0.87h2.12
		c-0.54,1.63-1.97,2.66-3.71,2.66c-2.2,0-3.87-1.71-3.87-3.94c0-2.25,1.66-3.94,3.87-3.94C187.92,109.82,189.5,111.58,189.5,113.74
		L189.5,113.74z M183.86,112.95h3.62c-0.29-0.91-0.94-1.41-1.85-1.41C184.73,111.54,184.1,112.06,183.86,112.95z"/>
	<path class="st0" d="M195.41,109.99v1.9h-0.88c-1.14,0-1.59,0.5-1.59,1.72v3.88h-2.02v-7.46h1.29l0.36,0.91
		c0.53-0.66,1.21-0.96,2.17-0.96H195.41z"/>
	<path class="st0" d="M196.01,115.04h1.97c0.01,0.67,0.52,1,1.24,1c0.56,0,1.06-0.25,1.06-0.75c0-0.51-0.65-0.67-1.44-0.8
		c-1.19-0.2-2.71-0.52-2.71-2.28c0-1.41,1.2-2.39,3-2.39c1.8,0,2.99,1,2.99,2.5h-1.92c-0.01-0.59-0.42-0.89-1.13-0.89
		c-0.63,0-1,0.29-1,0.71c0,0.5,0.64,0.61,1.41,0.75c1.22,0.22,2.77,0.48,2.77,2.29c0,1.52-1.25,2.51-3.13,2.51
		C197.27,117.71,196.02,116.64,196.01,115.04z"/>
	<path class="st0" d="M203.75,110.03h2.02v7.46h-2.02V110.03z M203.76,107.16h2.01v1.88h-2.01V107.16z"/>
	<path class="st0" d="M212.27,115.7v1.8h-1.43c-1.64,0-2.65-1.01-2.65-2.67v-3.18h-1.35v-0.44l2.95-3.13h0.39v1.95h2.06v1.62h-2.03
		v2.91c0,0.72,0.42,1.14,1.15,1.14H212.27z"/>
	<path class="st0" d="M220.78,114.33h-5.65c0.18,1.02,0.85,1.58,1.82,1.58c0.7,0,1.28-0.33,1.58-0.87h2.12
		c-0.54,1.63-1.97,2.66-3.7,2.66c-2.21,0-3.87-1.71-3.87-3.94c0-2.25,1.66-3.94,3.87-3.94c2.29,0,3.86,1.77,3.86,3.92
		C220.82,113.93,220.81,114.13,220.78,114.33z M215.19,112.95h3.62c-0.29-0.91-0.94-1.41-1.85-1.41
		C216.06,111.54,215.42,112.06,215.19,112.95z M217.56,109.2h-1.53l0.75-2.1h2.15L217.56,109.2z"/>
	<path class="st0" d="M161.33,127.18c-0.01,3.03-2.04,5.26-4.94,5.26c-2.85,0-5.01-2.14-5.01-5.04c0-2.9,2.11-5.06,4.97-5.06
		c2.4,0,4.4,1.52,4.85,3.69h-2.16c-0.42-1.04-1.44-1.69-2.66-1.69c-1.71,0-2.89,1.25-2.89,3.06c0,1.79,1.15,3.04,2.89,3.04
		c1.25,0,2.34-0.66,2.69-1.66h-2.9v-1.61H161.33z"/>
	<path class="st0" d="M167.23,124.73v1.9h-0.88c-1.14,0-1.59,0.5-1.59,1.72v3.88h-2.02v-7.46h1.29l0.36,0.91
		c0.53-0.66,1.21-0.96,2.17-0.96H167.23z"/>
	<path class="st0" d="M175.42,129.07h-5.65c0.18,1.02,0.85,1.58,1.82,1.58c0.7,0,1.28-0.33,1.58-0.87h2.12
		c-0.54,1.63-1.97,2.66-3.71,2.66c-2.2,0-3.87-1.71-3.87-3.94c0-2.25,1.66-3.94,3.87-3.94c2.29,0,3.87,1.77,3.87,3.92
		C175.46,128.67,175.44,128.87,175.42,129.07z M169.82,127.69h3.62c-0.29-0.91-0.94-1.41-1.85-1.41
		C170.69,126.28,170.05,126.8,169.82,127.69z"/>
	<path class="st0" d="M183.9,127.71v4.52h-2.02v-4.2c0-1.13-0.43-1.67-1.3-1.67c-1.04,0-1.67,0.75-1.67,1.95v3.92h-2.02v-7.46h1.38
		l0.39,0.92c0.57-0.67,1.46-1.1,2.47-1.1C182.84,124.59,183.9,125.82,183.9,127.71z"/>
	<path class="st0" d="M185.25,128.5c0-2.26,1.72-3.94,4.04-3.94c2.3,0,4.04,1.68,4.04,3.94c0,2.25-1.73,3.94-4.04,3.94
		C186.98,132.44,185.25,130.75,185.25,128.5z M191.28,128.5c0-1.21-0.83-2.05-1.99-2.05c-1.16,0-1.99,0.84-1.99,2.05
		s0.83,2.05,1.99,2.05C190.45,130.55,191.28,129.71,191.28,128.5z"/>
	<path class="st0" d="M202.76,128.5c0,2.26-1.65,3.94-3.92,3.94c-0.91,0-1.71-0.31-2.34-0.83l-0.24,0.62h-1.49v-10.16h2.02v3.09
		c0.58-0.39,1.28-0.62,2.05-0.62C201.11,124.56,202.76,126.24,202.76,128.5z M200.7,128.5c0-1.17-0.86-2.05-2.03-2.05
		s-2.03,0.88-2.03,2.05c0,1.16,0.86,2.03,2.03,2.03S200.7,129.66,200.7,128.5z"/>
	<path class="st0" d="M204.21,122.08h2.02v10.16h-2.02V122.08z"/>
	<path class="st0" d="M215.37,129.07h-5.65c0.18,1.02,0.85,1.58,1.82,1.58c0.7,0,1.28-0.33,1.58-0.87h2.12
		c-0.54,1.63-1.97,2.66-3.71,2.66c-2.2,0-3.87-1.71-3.87-3.94c0-2.25,1.66-3.94,3.87-3.94c2.29,0,3.87,1.77,3.87,3.92
		C215.41,128.67,215.39,128.87,215.37,129.07z M209.77,127.69h3.62c-0.29-0.91-0.94-1.41-1.85-1.41
		C210.64,126.28,210,126.8,209.77,127.69z"/>
	<path class="st0" d="M225.67,130.4h-3.85l-0.66,1.83h-2.22l3.79-9.68h1.98l3.91,9.68h-2.27L225.67,130.4z M222.47,128.57h2.54
		l-1.28-3.46L222.47,128.57z"/>
	<path class="st0" d="M229.7,122.08h2.02v10.16h-2.02V122.08z"/>
	<path class="st0" d="M241.64,128.5c0,2.26-1.66,3.96-3.91,3.96c-0.77,0-1.48-0.23-2.05-0.63v3.1h-2.02v-10.16h1.33l0.34,0.68
		c0.63-0.56,1.46-0.89,2.39-0.89C239.97,124.56,241.64,126.24,241.64,128.5z M239.59,128.5c0-1.17-0.86-2.05-2.03-2.05
		s-2.03,0.88-2.03,2.05c0,1.17,0.86,2.05,2.03,2.05S239.59,129.67,239.59,128.5z"/>
	<path class="st0" d="M250.29,129.07h-5.65c0.18,1.02,0.85,1.58,1.82,1.58c0.7,0,1.28-0.33,1.58-0.87h2.12
		c-0.54,1.63-1.97,2.66-3.71,2.66c-2.2,0-3.87-1.71-3.87-3.94c0-2.25,1.66-3.94,3.87-3.94c2.29,0,3.87,1.77,3.87,3.92
		C250.33,128.67,250.31,128.87,250.29,129.07z M244.69,127.69h3.62c-0.29-0.91-0.94-1.41-1.85-1.41
		C245.56,126.28,244.92,126.8,244.69,127.69z"/>
	<path class="st0" d="M251.27,129.77h1.97c0.01,0.67,0.52,1,1.24,1c0.56,0,1.06-0.25,1.06-0.75c0-0.51-0.65-0.67-1.44-0.8
		c-1.19-0.2-2.71-0.52-2.71-2.28c0-1.41,1.2-2.39,3-2.39c1.8,0,2.99,1,2.99,2.5h-1.92c-0.01-0.59-0.42-0.89-1.13-0.89
		c-0.63,0-1,0.29-1,0.71c0,0.5,0.64,0.61,1.41,0.75c1.22,0.22,2.77,0.48,2.77,2.29c0,1.52-1.25,2.51-3.13,2.51
		C252.54,132.44,251.28,131.38,251.27,129.77z"/>
</g>
</svg>
